<mxfile host="app.diagrams.net" modified="2024-07-12T03:52:27.653Z" agent="Mozilla/5.0 (Windows NT 10.0; Win64; x64) AppleWebKit/537.36 (KHTML, like Gecko) Chrome/126.0.0.0 Safari/537.36" etag="4FaGIAzmQL2pjzstqbvd" version="24.6.5" type="github">
  <diagram name="第 1 页" id="HkRbZNd1-bLU1L9o9ANq">
    <mxGraphModel dx="1845" dy="633" grid="0" gridSize="10" guides="1" tooltips="1" connect="1" arrows="1" fold="1" page="1" pageScale="1" pageWidth="827" pageHeight="1169" math="0" shadow="0">
      <root>
        <mxCell id="0" />
        <mxCell id="1" parent="0" />
        <mxCell id="0iZWDAUJeUsiaacEjxgt-1" value="Git 知识回顾" style="rounded=0;whiteSpace=wrap;html=1;" vertex="1" parent="1">
          <mxGeometry x="240" y="117" width="384" height="32" as="geometry" />
        </mxCell>
        <mxCell id="0iZWDAUJeUsiaacEjxgt-12" style="edgeStyle=orthogonalEdgeStyle;rounded=0;orthogonalLoop=1;jettySize=auto;html=1;entryX=0;entryY=0.5;entryDx=0;entryDy=0;" edge="1" parent="1" source="0iZWDAUJeUsiaacEjxgt-3" target="0iZWDAUJeUsiaacEjxgt-9">
          <mxGeometry relative="1" as="geometry">
            <Array as="points">
              <mxPoint x="154" y="224" />
              <mxPoint x="154" y="315" />
            </Array>
          </mxGeometry>
        </mxCell>
        <mxCell id="0iZWDAUJeUsiaacEjxgt-3" value="" style="sketch=0;pointerEvents=1;shadow=0;dashed=0;html=1;strokeColor=none;fillColor=#434445;aspect=fixed;labelPosition=center;verticalLabelPosition=bottom;verticalAlign=top;align=center;outlineConnect=0;shape=mxgraph.vvd.datastore;" vertex="1" parent="1">
          <mxGeometry x="39" y="182.82" width="56" height="43.68" as="geometry" />
        </mxCell>
        <mxCell id="0iZWDAUJeUsiaacEjxgt-4" value="&lt;font style=&quot;font-size: 9px;&quot;&gt;资源库&lt;/font&gt;" style="text;html=1;align=center;verticalAlign=middle;resizable=0;points=[];autosize=1;strokeColor=none;fillColor=none;" vertex="1" parent="1">
          <mxGeometry x="9.999999999999993" y="226.5" width="45" height="26" as="geometry" />
        </mxCell>
        <mxCell id="0iZWDAUJeUsiaacEjxgt-34" style="edgeStyle=orthogonalEdgeStyle;rounded=0;orthogonalLoop=1;jettySize=auto;html=1;" edge="1" parent="1" source="0iZWDAUJeUsiaacEjxgt-5">
          <mxGeometry relative="1" as="geometry">
            <mxPoint x="264.9999999999998" y="302.28737035290953" as="targetPoint" />
          </mxGeometry>
        </mxCell>
        <mxCell id="0iZWDAUJeUsiaacEjxgt-36" style="edgeStyle=orthogonalEdgeStyle;rounded=0;orthogonalLoop=1;jettySize=auto;html=1;" edge="1" parent="1" source="0iZWDAUJeUsiaacEjxgt-5" target="0iZWDAUJeUsiaacEjxgt-35">
          <mxGeometry relative="1" as="geometry" />
        </mxCell>
        <mxCell id="0iZWDAUJeUsiaacEjxgt-39" style="edgeStyle=orthogonalEdgeStyle;rounded=0;orthogonalLoop=1;jettySize=auto;html=1;" edge="1" parent="1" source="0iZWDAUJeUsiaacEjxgt-5" target="0iZWDAUJeUsiaacEjxgt-38">
          <mxGeometry relative="1" as="geometry">
            <Array as="points">
              <mxPoint x="324" y="209" />
              <mxPoint x="324" y="235" />
            </Array>
          </mxGeometry>
        </mxCell>
        <mxCell id="0iZWDAUJeUsiaacEjxgt-5" value="" style="sketch=0;pointerEvents=1;shadow=0;dashed=0;html=1;strokeColor=none;fillColor=#434445;aspect=fixed;labelPosition=center;verticalLabelPosition=bottom;verticalAlign=top;align=center;outlineConnect=0;shape=mxgraph.vvd.laptop;" vertex="1" parent="1">
          <mxGeometry x="240" y="190.5" width="50" height="36" as="geometry" />
        </mxCell>
        <mxCell id="0iZWDAUJeUsiaacEjxgt-6" value="&lt;font style=&quot;font-size: 9px;&quot;&gt;本地库&lt;/font&gt;" style="text;html=1;align=center;verticalAlign=middle;resizable=0;points=[];autosize=1;strokeColor=none;fillColor=none;" vertex="1" parent="1">
          <mxGeometry x="213" y="162" width="45" height="26" as="geometry" />
        </mxCell>
        <mxCell id="0iZWDAUJeUsiaacEjxgt-7" style="edgeStyle=orthogonalEdgeStyle;rounded=0;orthogonalLoop=1;jettySize=auto;html=1;entryX=0.105;entryY=0.372;entryDx=0;entryDy=0;entryPerimeter=0;" edge="1" parent="1" source="0iZWDAUJeUsiaacEjxgt-3" target="0iZWDAUJeUsiaacEjxgt-5">
          <mxGeometry relative="1" as="geometry">
            <Array as="points">
              <mxPoint x="165" y="205" />
            </Array>
          </mxGeometry>
        </mxCell>
        <mxCell id="0iZWDAUJeUsiaacEjxgt-8" value="&lt;font style=&quot;font-size: 9px;&quot;&gt;git clone&lt;/font&gt;" style="text;html=1;align=center;verticalAlign=middle;resizable=0;points=[];autosize=1;strokeColor=none;fillColor=none;" vertex="1" parent="1">
          <mxGeometry x="134" y="176" width="52" height="26" as="geometry" />
        </mxCell>
        <mxCell id="0iZWDAUJeUsiaacEjxgt-16" style="edgeStyle=orthogonalEdgeStyle;rounded=0;orthogonalLoop=1;jettySize=auto;html=1;" edge="1" parent="1" source="0iZWDAUJeUsiaacEjxgt-9">
          <mxGeometry relative="1" as="geometry">
            <mxPoint x="259" y="373.0919820851293" as="targetPoint" />
          </mxGeometry>
        </mxCell>
        <mxCell id="0iZWDAUJeUsiaacEjxgt-9" value="&lt;font style=&quot;font-size: 8px;&quot;&gt;修改后的工作副本&lt;/font&gt;" style="rounded=0;whiteSpace=wrap;html=1;" vertex="1" parent="1">
          <mxGeometry x="213" y="304" width="92" height="23" as="geometry" />
        </mxCell>
        <mxCell id="0iZWDAUJeUsiaacEjxgt-11" value="&lt;font style=&quot;font-size: 9px;&quot;&gt;CRUD&lt;/font&gt;" style="text;html=1;align=center;verticalAlign=middle;resizable=0;points=[];autosize=1;strokeColor=none;fillColor=none;" vertex="1" parent="1">
          <mxGeometry x="266" y="255" width="44" height="26" as="geometry" />
        </mxCell>
        <mxCell id="0iZWDAUJeUsiaacEjxgt-13" value="&lt;font style=&quot;font-size: 9px;&quot;&gt;git pull&lt;/font&gt;" style="text;html=1;align=center;verticalAlign=middle;resizable=0;points=[];autosize=1;strokeColor=none;fillColor=none;" vertex="1" parent="1">
          <mxGeometry x="153" y="259" width="44" height="26" as="geometry" />
        </mxCell>
        <mxCell id="0iZWDAUJeUsiaacEjxgt-20" style="edgeStyle=orthogonalEdgeStyle;rounded=0;orthogonalLoop=1;jettySize=auto;html=1;" edge="1" parent="1" source="0iZWDAUJeUsiaacEjxgt-14">
          <mxGeometry relative="1" as="geometry">
            <mxPoint x="259" y="434.24142140355616" as="targetPoint" />
          </mxGeometry>
        </mxCell>
        <mxCell id="0iZWDAUJeUsiaacEjxgt-14" value="&lt;font style=&quot;font-size: 9px;&quot;&gt;检查修改&lt;/font&gt;" style="rounded=0;whiteSpace=wrap;html=1;" vertex="1" parent="1">
          <mxGeometry x="213" y="376" width="92" height="25" as="geometry" />
        </mxCell>
        <mxCell id="0iZWDAUJeUsiaacEjxgt-17" value="&lt;font style=&quot;font-size: 9px;&quot;&gt;查看文件状态 git status&lt;/font&gt;" style="text;html=1;align=center;verticalAlign=middle;resizable=0;points=[];autosize=1;strokeColor=none;fillColor=none;" vertex="1" parent="1">
          <mxGeometry x="264" y="335" width="111" height="26" as="geometry" />
        </mxCell>
        <mxCell id="0iZWDAUJeUsiaacEjxgt-28" style="edgeStyle=orthogonalEdgeStyle;rounded=0;orthogonalLoop=1;jettySize=auto;html=1;exitX=0;exitY=0.25;exitDx=0;exitDy=0;" edge="1" parent="1" source="0iZWDAUJeUsiaacEjxgt-19">
          <mxGeometry relative="1" as="geometry">
            <mxPoint x="69" y="443" as="targetPoint" />
          </mxGeometry>
        </mxCell>
        <mxCell id="0iZWDAUJeUsiaacEjxgt-50" style="edgeStyle=orthogonalEdgeStyle;rounded=0;orthogonalLoop=1;jettySize=auto;html=1;" edge="1" parent="1" source="0iZWDAUJeUsiaacEjxgt-19" target="0iZWDAUJeUsiaacEjxgt-48">
          <mxGeometry relative="1" as="geometry" />
        </mxCell>
        <mxCell id="0iZWDAUJeUsiaacEjxgt-53" style="edgeStyle=orthogonalEdgeStyle;rounded=0;orthogonalLoop=1;jettySize=auto;html=1;entryX=0;entryY=0.5;entryDx=0;entryDy=0;" edge="1" parent="1" source="0iZWDAUJeUsiaacEjxgt-19" target="0iZWDAUJeUsiaacEjxgt-14">
          <mxGeometry relative="1" as="geometry">
            <Array as="points">
              <mxPoint x="224" y="419" />
              <mxPoint x="193" y="419" />
              <mxPoint x="193" y="389" />
            </Array>
          </mxGeometry>
        </mxCell>
        <mxCell id="0iZWDAUJeUsiaacEjxgt-19" value="&lt;font style=&quot;font-size: 9px;&quot;&gt;提交修改&lt;/font&gt;" style="rounded=0;whiteSpace=wrap;html=1;" vertex="1" parent="1">
          <mxGeometry x="213" y="439" width="93" height="20" as="geometry" />
        </mxCell>
        <mxCell id="0iZWDAUJeUsiaacEjxgt-21" value="&lt;font style=&quot;font-size: 9px;&quot;&gt;git add &amp;amp; git commit&lt;/font&gt;" style="text;html=1;align=center;verticalAlign=middle;resizable=0;points=[];autosize=1;strokeColor=none;fillColor=none;" vertex="1" parent="1">
          <mxGeometry x="254" y="406" width="97" height="26" as="geometry" />
        </mxCell>
        <mxCell id="0iZWDAUJeUsiaacEjxgt-26" style="edgeStyle=orthogonalEdgeStyle;rounded=0;orthogonalLoop=1;jettySize=auto;html=1;" edge="1" parent="1" source="0iZWDAUJeUsiaacEjxgt-22" target="0iZWDAUJeUsiaacEjxgt-3">
          <mxGeometry relative="1" as="geometry">
            <Array as="points">
              <mxPoint x="67" y="384" />
              <mxPoint x="67" y="384" />
            </Array>
          </mxGeometry>
        </mxCell>
        <mxCell id="0iZWDAUJeUsiaacEjxgt-49" style="edgeStyle=orthogonalEdgeStyle;rounded=0;orthogonalLoop=1;jettySize=auto;html=1;" edge="1" parent="1" source="0iZWDAUJeUsiaacEjxgt-22" target="0iZWDAUJeUsiaacEjxgt-48">
          <mxGeometry relative="1" as="geometry">
            <Array as="points">
              <mxPoint x="113" y="543" />
            </Array>
          </mxGeometry>
        </mxCell>
        <mxCell id="0iZWDAUJeUsiaacEjxgt-22" value="&lt;font style=&quot;font-size: 9px;&quot;&gt;修改错误后的工作副本&lt;/font&gt;" style="rounded=0;whiteSpace=wrap;html=1;" vertex="1" parent="1">
          <mxGeometry x="41" y="500" width="145" height="27" as="geometry" />
        </mxCell>
        <mxCell id="0iZWDAUJeUsiaacEjxgt-23" style="edgeStyle=orthogonalEdgeStyle;rounded=0;orthogonalLoop=1;jettySize=auto;html=1;entryX=0.612;entryY=0.014;entryDx=0;entryDy=0;entryPerimeter=0;" edge="1" parent="1" source="0iZWDAUJeUsiaacEjxgt-19" target="0iZWDAUJeUsiaacEjxgt-22">
          <mxGeometry relative="1" as="geometry" />
        </mxCell>
        <mxCell id="0iZWDAUJeUsiaacEjxgt-24" value="&lt;font style=&quot;font-size: 8px;&quot;&gt;修改&lt;/font&gt;" style="text;html=1;align=center;verticalAlign=middle;resizable=0;points=[];autosize=1;strokeColor=none;fillColor=none;" vertex="1" parent="1">
          <mxGeometry x="137" y="459" width="34" height="26" as="geometry" />
        </mxCell>
        <mxCell id="0iZWDAUJeUsiaacEjxgt-29" value="&lt;font style=&quot;font-size: 9px;&quot;&gt;git push&lt;/font&gt;" style="text;html=1;align=center;verticalAlign=middle;resizable=0;points=[];autosize=1;strokeColor=none;fillColor=none;" vertex="1" parent="1">
          <mxGeometry x="68" y="350" width="50" height="26" as="geometry" />
        </mxCell>
        <mxCell id="0iZWDAUJeUsiaacEjxgt-30" value="&lt;font style=&quot;font-size: 9px;&quot;&gt;工作区：当前能够看到的目录&lt;/font&gt;&lt;div style=&quot;font-size: 9px;&quot;&gt;&lt;font style=&quot;font-size: 9px;&quot;&gt;暂存区：一般是存放在 .git 目录下的 index 文件中&lt;/font&gt;&lt;/div&gt;&lt;div style=&quot;font-size: 9px;&quot;&gt;&lt;font style=&quot;font-size: 9px;&quot;&gt;版本库：工作区中的 .git 目录&lt;/font&gt;&lt;/div&gt;" style="rounded=0;whiteSpace=wrap;html=1;" vertex="1" parent="1">
          <mxGeometry x="520" y="176" width="282" height="63" as="geometry" />
        </mxCell>
        <mxCell id="0iZWDAUJeUsiaacEjxgt-32" value="&lt;div style=&quot;&quot;&gt;&lt;span style=&quot;font-size: 9px; text-wrap: wrap; background-color: initial;&quot;&gt;Git 工作流程&lt;/span&gt;&lt;/div&gt;" style="text;html=1;align=center;verticalAlign=middle;resizable=0;points=[];autosize=1;strokeColor=none;fillColor=none;" vertex="1" parent="1">
          <mxGeometry x="-19" y="168" width="68" height="26" as="geometry" />
        </mxCell>
        <mxCell id="0iZWDAUJeUsiaacEjxgt-35" value="" style="sketch=0;pointerEvents=1;shadow=0;dashed=0;html=1;strokeColor=none;fillColor=#434445;aspect=fixed;labelPosition=center;verticalLabelPosition=bottom;verticalAlign=top;align=center;outlineConnect=0;shape=mxgraph.vvd.laptop;" vertex="1" parent="1">
          <mxGeometry x="358" y="158" width="50" height="36" as="geometry" />
        </mxCell>
        <mxCell id="0iZWDAUJeUsiaacEjxgt-37" value="&lt;font style=&quot;font-size: 9px;&quot;&gt;master&lt;/font&gt;" style="text;html=1;align=center;verticalAlign=middle;resizable=0;points=[];autosize=1;strokeColor=none;fillColor=none;" vertex="1" parent="1">
          <mxGeometry x="251" y="162" width="46" height="26" as="geometry" />
        </mxCell>
        <mxCell id="0iZWDAUJeUsiaacEjxgt-45" style="edgeStyle=orthogonalEdgeStyle;rounded=0;orthogonalLoop=1;jettySize=auto;html=1;entryX=1;entryY=0.5;entryDx=0;entryDy=0;" edge="1" parent="1" source="0iZWDAUJeUsiaacEjxgt-38" target="0iZWDAUJeUsiaacEjxgt-9">
          <mxGeometry relative="1" as="geometry">
            <Array as="points">
              <mxPoint x="383" y="315" />
            </Array>
          </mxGeometry>
        </mxCell>
        <mxCell id="0iZWDAUJeUsiaacEjxgt-38" value="" style="sketch=0;pointerEvents=1;shadow=0;dashed=0;html=1;strokeColor=none;fillColor=#434445;aspect=fixed;labelPosition=center;verticalLabelPosition=bottom;verticalAlign=top;align=center;outlineConnect=0;shape=mxgraph.vvd.laptop;" vertex="1" parent="1">
          <mxGeometry x="358.7" y="217.5" width="48.61" height="35" as="geometry" />
        </mxCell>
        <mxCell id="0iZWDAUJeUsiaacEjxgt-40" value="&lt;font style=&quot;font-size: 9px;&quot;&gt;dev&lt;/font&gt;" style="text;html=1;align=center;verticalAlign=middle;resizable=0;points=[];autosize=1;strokeColor=none;fillColor=none;" vertex="1" parent="1">
          <mxGeometry x="405" y="154" width="33" height="26" as="geometry" />
        </mxCell>
        <mxCell id="0iZWDAUJeUsiaacEjxgt-41" value="&lt;font style=&quot;font-size: 9px;&quot;&gt;test&lt;/font&gt;" style="text;html=1;align=center;verticalAlign=middle;resizable=0;points=[];autosize=1;strokeColor=none;fillColor=none;" vertex="1" parent="1">
          <mxGeometry x="407.31" y="217.5" width="33" height="26" as="geometry" />
        </mxCell>
        <mxCell id="0iZWDAUJeUsiaacEjxgt-42" value="&lt;div&gt;&lt;font style=&quot;font-size: 9px;&quot;&gt;git branch &amp;amp;&lt;/font&gt;&lt;/div&gt;&lt;font style=&quot;font-size: 9px;&quot;&gt;git checkout&lt;/font&gt;" style="text;html=1;align=center;verticalAlign=middle;resizable=0;points=[];autosize=1;strokeColor=none;fillColor=none;" vertex="1" parent="1">
          <mxGeometry x="292" y="171" width="66" height="41" as="geometry" />
        </mxCell>
        <mxCell id="0iZWDAUJeUsiaacEjxgt-46" value="&lt;font style=&quot;font-size: 9px;&quot;&gt;git merge test&lt;/font&gt;" style="text;html=1;align=center;verticalAlign=middle;resizable=0;points=[];autosize=1;strokeColor=none;fillColor=none;" vertex="1" parent="1">
          <mxGeometry x="315" y="281" width="73" height="26" as="geometry" />
        </mxCell>
        <mxCell id="0iZWDAUJeUsiaacEjxgt-48" value="" style="sketch=0;pointerEvents=1;shadow=0;dashed=0;html=1;strokeColor=none;fillColor=#434445;aspect=fixed;labelPosition=center;verticalLabelPosition=bottom;verticalAlign=top;align=center;outlineConnect=0;shape=mxgraph.vvd.storage;" vertex="1" parent="1">
          <mxGeometry x="241.5" y="519" width="36" height="48" as="geometry" />
        </mxCell>
        <mxCell id="0iZWDAUJeUsiaacEjxgt-51" value="&lt;font style=&quot;font-size: 9px;&quot;&gt;git tag -a v1.0&lt;/font&gt;" style="text;html=1;align=center;verticalAlign=middle;resizable=0;points=[];autosize=1;strokeColor=none;fillColor=none;" vertex="1" parent="1">
          <mxGeometry x="280" y="500" width="73" height="26" as="geometry" />
        </mxCell>
        <mxCell id="0iZWDAUJeUsiaacEjxgt-52" value="&lt;font style=&quot;font-size: 9px;&quot;&gt;打上标记&lt;/font&gt;" style="text;html=1;align=center;verticalAlign=middle;resizable=0;points=[];autosize=1;strokeColor=none;fillColor=none;" vertex="1" parent="1">
          <mxGeometry x="153" y="551" width="54" height="26" as="geometry" />
        </mxCell>
        <mxCell id="0iZWDAUJeUsiaacEjxgt-54" value="&lt;font style=&quot;font-size: 9px;&quot;&gt;git reset&lt;/font&gt;" style="text;html=1;align=center;verticalAlign=middle;resizable=0;points=[];autosize=1;strokeColor=none;fillColor=none;" vertex="1" parent="1">
          <mxGeometry x="136" y="401" width="50" height="26" as="geometry" />
        </mxCell>
      </root>
    </mxGraphModel>
  </diagram>
</mxfile>
